<svg width="26" height="24" viewBox="0 0 26 24" fill="none" xmlns="http://www.w3.org/2000/svg">
<g id="Group 1">
<path id="Vector" d="M25.7679 5.76015C25.6483 5.58735 25.4887 5.44611 25.3026 5.34853C25.1165 5.25095 24.9095 5.19994 24.6993 5.19987H6.93272L5.43256 1.59896C5.23586 1.12476 4.90278 0.719651 4.47555 0.434988C4.04833 0.150325 3.54619 -0.00106732 3.03282 5.66426e-06H0V2.59994H3.03282L9.19986 17.4C9.29864 17.6368 9.46528 17.8391 9.67879 17.9814C9.89231 18.1236 10.1432 18.1995 10.3997 18.1995H20.7994C21.3415 18.1995 21.8264 17.8628 22.0175 17.3571L25.9174 6.95742C25.9911 6.76063 26.016 6.54891 25.99 6.34039C25.9639 6.13187 25.8877 5.93278 25.7679 5.76015ZM19.8986 15.5996H11.2668L8.01689 7.7998H22.8235L19.8986 15.5996Z" fill="black"/>
<path id="Vector_2" d="M11.0503 23.3993C12.1272 23.3993 13.0002 22.5263 13.0002 21.4494C13.0002 20.3725 12.1272 19.4995 11.0503 19.4995C9.97336 19.4995 9.10034 20.3725 9.10034 21.4494C9.10034 22.5263 9.97336 23.3993 11.0503 23.3993Z" fill="black"/>
<path id="Vector_3" d="M20.149 23.3993C21.226 23.3993 22.099 22.5263 22.099 21.4494C22.099 20.3725 21.226 19.4995 20.149 19.4995C19.0721 19.4995 18.1991 20.3725 18.1991 21.4494C18.1991 22.5263 19.0721 23.3993 20.149 23.3993Z" fill="black"/>
</g>
</svg>
