<svg width="23" height="23" viewBox="0 0 23 23" fill="none" xmlns="http://www.w3.org/2000/svg">
<g id="Group">
<path id="Vector" fill-rule="evenodd" clip-rule="evenodd" d="M15.6822 8.36364C15.6822 9.47273 15.2416 10.5364 14.4574 11.3206C13.6731 12.1049 12.6094 12.5455 11.5004 12.5455C10.3913 12.5455 9.32761 12.1049 8.54337 11.3206C7.75913 10.5364 7.31854 9.47273 7.31854 8.36364C7.31854 7.25455 7.75913 6.19089 8.54337 5.40665C9.32761 4.62241 10.3913 4.18182 11.5004 4.18182C12.6094 4.18182 13.6731 4.62241 14.4574 5.40665C15.2416 6.19089 15.6822 7.25455 15.6822 8.36364ZM13.5913 8.36364C13.5913 8.91819 13.371 9.45002 12.9789 9.84214C12.5867 10.2343 12.0549 10.4546 11.5004 10.4546C10.9458 10.4546 10.414 10.2343 10.0219 9.84214C9.62974 9.45002 9.40945 8.91819 9.40945 8.36364C9.40945 7.8091 9.62974 7.27727 10.0219 6.88515C10.414 6.49302 10.9458 6.27273 11.5004 6.27273C12.0549 6.27273 12.5867 6.49302 12.9789 6.88515C13.371 7.27727 13.5913 7.8091 13.5913 8.36364Z" fill="black"/>
<path id="Vector_2" fill-rule="evenodd" clip-rule="evenodd" d="M11.5 0C5.14886 0 0 5.14886 0 11.5C0 17.8511 5.14886 23 11.5 23C17.8511 23 23 17.8511 23 11.5C23 5.14886 17.8511 0 11.5 0ZM2.09091 11.5C2.09091 13.685 2.83632 15.6965 4.08564 17.2939C4.96301 16.1417 6.0949 15.208 7.39286 14.5656C8.69083 13.9232 10.1197 13.5897 11.568 13.5909C12.9974 13.5896 14.4084 13.9145 15.6932 14.541C16.9781 15.1675 18.1031 16.079 18.9823 17.2061C19.8881 16.018 20.4981 14.6314 20.7616 13.1608C21.0251 11.6902 20.9346 10.1781 20.4977 8.74939C20.0608 7.32073 19.2899 6.01664 18.2489 4.94504C17.2079 3.87344 15.9267 3.06513 14.5113 2.58699C13.0959 2.10885 11.587 1.97462 10.1094 2.19543C8.63182 2.41623 7.22805 2.9857 6.01426 3.85674C4.80046 4.72777 3.81153 5.87532 3.12928 7.20443C2.44704 8.53354 2.0911 10.006 2.09091 11.5ZM11.5 20.9091C9.34004 20.9123 7.24528 20.1693 5.57018 18.8056C6.24443 17.8404 7.14185 17.0523 8.18611 16.5084C9.23037 15.9646 10.3906 15.681 11.568 15.6818C12.7307 15.6809 13.8768 15.9574 14.9112 16.4883C15.9457 17.0192 16.8385 17.7893 17.5155 18.7345C15.8274 20.1425 13.6982 20.9122 11.5 20.9091Z" fill="black"/>
</g>
</svg>
